<mxfile host="app.diagrams.net" modified="2024-03-01T16:48:50.352Z" agent="Mozilla/5.0 (Windows NT 10.0; Win64; x64) AppleWebKit/537.36 (KHTML, like Gecko) Chrome/122.0.0.0 Safari/537.36" etag="_DjnkWpB5-c0s6H6xURt" version="24.0.0" type="device">
  <diagram name="Page-1" id="Z_HgXSb6XbGn1WVS4Ga2">
    <mxGraphModel dx="989" dy="509" grid="1" gridSize="10" guides="1" tooltips="1" connect="1" arrows="1" fold="1" page="1" pageScale="1" pageWidth="850" pageHeight="1100" math="0" shadow="0">
      <root>
        <mxCell id="0" />
        <mxCell id="1" parent="0" />
        <mxCell id="lx_nPW2oovbXCM5_muj4-3" value="Ktor App" style="ellipse;whiteSpace=wrap;html=1;aspect=fixed;movable=1;resizable=1;rotatable=1;deletable=1;editable=1;locked=0;connectable=1;" vertex="1" parent="1">
          <mxGeometry x="345" y="365" width="170" height="170" as="geometry" />
        </mxCell>
        <mxCell id="lx_nPW2oovbXCM5_muj4-6" value="&lt;span style=&quot;color: rgba(0, 0, 0, 0); font-family: monospace; font-size: 0px; text-align: start; text-wrap: nowrap;&quot;&gt;%3CmxGraphModel%3E%3Croot%3E%3CmxCell%20id%3D%220%22%2F%3E%3CmxCell%20id%3D%221%22%20parent%3D%220%22%2F%3E%3CmxCell%20id%3D%222%22%20value%3D%22MySQL%22%20style%3D%22shape%3Dcylinder3%3BwhiteSpace%3Dwrap%3Bhtml%3D1%3BboundedLbl%3D1%3BbackgroundOutline%3D1%3Bsize%3D15%3B%22%20vertex%3D%221%22%20parent%3D%221%22%3E%3CmxGeometry%20x%3D%22660%22%20y%3D%22390%22%20width%3D%2260%22%20height%3D%2280%22%20as%3D%22geometry%22%2F%3E%3C%2FmxCell%3E%3C%2Froot%3E%3C%2FmxGraphModel%3E&lt;/span&gt;" style="ellipse;whiteSpace=wrap;html=1;movable=0;resizable=0;rotatable=0;deletable=0;editable=0;locked=1;connectable=0;" vertex="1" parent="1">
          <mxGeometry x="660" y="380" width="160" height="140" as="geometry" />
        </mxCell>
        <mxCell id="lx_nPW2oovbXCM5_muj4-7" value="MySQL" style="shape=cylinder3;whiteSpace=wrap;html=1;boundedLbl=1;backgroundOutline=1;size=15;movable=0;resizable=0;rotatable=0;deletable=0;editable=0;locked=1;connectable=0;" vertex="1" parent="1">
          <mxGeometry x="710" y="410" width="60" height="80" as="geometry" />
        </mxCell>
        <mxCell id="lx_nPW2oovbXCM5_muj4-8" value="GW2 API" style="ellipse;whiteSpace=wrap;html=1;" vertex="1" parent="1">
          <mxGeometry x="372.5" y="160" width="115" height="110" as="geometry" />
        </mxCell>
        <mxCell id="lx_nPW2oovbXCM5_muj4-9" value="" style="endArrow=classic;html=1;rounded=0;" edge="1" parent="1" source="lx_nPW2oovbXCM5_muj4-3" target="lx_nPW2oovbXCM5_muj4-8">
          <mxGeometry width="50" height="50" relative="1" as="geometry">
            <mxPoint x="330" y="360" as="sourcePoint" />
            <mxPoint x="460" y="380" as="targetPoint" />
          </mxGeometry>
        </mxCell>
        <mxCell id="lx_nPW2oovbXCM5_muj4-10" value="" style="endArrow=classic;html=1;rounded=0;" edge="1" parent="1" source="lx_nPW2oovbXCM5_muj4-3" target="lx_nPW2oovbXCM5_muj4-6">
          <mxGeometry width="50" height="50" relative="1" as="geometry">
            <mxPoint x="610" y="360" as="sourcePoint" />
            <mxPoint x="660" y="440" as="targetPoint" />
          </mxGeometry>
        </mxCell>
        <mxCell id="lx_nPW2oovbXCM5_muj4-12" value="Logger Service" style="ellipse;whiteSpace=wrap;html=1;aspect=fixed;movable=0;resizable=0;rotatable=0;deletable=0;editable=0;locked=1;connectable=0;" vertex="1" parent="1">
          <mxGeometry x="60" y="220" width="120" height="120" as="geometry" />
        </mxCell>
        <mxCell id="lx_nPW2oovbXCM5_muj4-13" value="" style="endArrow=classic;html=1;rounded=0;" edge="1" parent="1" source="lx_nPW2oovbXCM5_muj4-3" target="lx_nPW2oovbXCM5_muj4-12">
          <mxGeometry width="50" height="50" relative="1" as="geometry">
            <mxPoint x="410" y="430" as="sourcePoint" />
            <mxPoint x="460" y="380" as="targetPoint" />
          </mxGeometry>
        </mxCell>
        <mxCell id="lx_nPW2oovbXCM5_muj4-14" value="Client (browser)" style="ellipse;whiteSpace=wrap;html=1;aspect=fixed;" vertex="1" parent="1">
          <mxGeometry x="370" y="650" width="120" height="120" as="geometry" />
        </mxCell>
        <mxCell id="lx_nPW2oovbXCM5_muj4-15" value="User" style="shape=umlActor;verticalLabelPosition=bottom;verticalAlign=top;html=1;outlineConnect=0;" vertex="1" parent="1">
          <mxGeometry x="415" y="820" width="30" height="60" as="geometry" />
        </mxCell>
        <mxCell id="lx_nPW2oovbXCM5_muj4-16" value="" style="endArrow=classic;html=1;rounded=0;" edge="1" parent="1" source="lx_nPW2oovbXCM5_muj4-15" target="lx_nPW2oovbXCM5_muj4-14">
          <mxGeometry width="50" height="50" relative="1" as="geometry">
            <mxPoint x="410" y="770" as="sourcePoint" />
            <mxPoint x="460" y="720" as="targetPoint" />
          </mxGeometry>
        </mxCell>
        <mxCell id="lx_nPW2oovbXCM5_muj4-17" value="" style="endArrow=classic;html=1;rounded=0;" edge="1" parent="1" source="lx_nPW2oovbXCM5_muj4-14" target="lx_nPW2oovbXCM5_muj4-3">
          <mxGeometry width="50" height="50" relative="1" as="geometry">
            <mxPoint x="410" y="770" as="sourcePoint" />
            <mxPoint x="460" y="720" as="targetPoint" />
          </mxGeometry>
        </mxCell>
      </root>
    </mxGraphModel>
  </diagram>
</mxfile>
